<svg width="36" height="36" viewBox="0 0 36 36" fill="none" xmlns="http://www.w3.org/2000/svg">
<path d="M0 8C0 3.58172 3.58172 0 8 0H28C32.4183 0 36 3.58172 36 8V28C36 32.4183 32.4183 36 28 36H8C3.58172 36 0 32.4183 0 28V8Z" fill="#F8F8F8"/>
<path d="M18.9375 18C18.9375 18.1854 18.8825 18.3667 18.7795 18.5208C18.6765 18.675 18.5301 18.7952 18.3588 18.8661C18.1875 18.9371 17.999 18.9557 17.8171 18.9195C17.6352 18.8833 17.4682 18.794 17.3371 18.6629C17.206 18.5318 17.1167 18.3648 17.0805 18.1829C17.0443 18.001 17.0629 17.8125 17.1339 17.6412C17.2048 17.4699 17.325 17.3235 17.4792 17.2205C17.6333 17.1175 17.8146 17.0625 18 17.0625C18.2486 17.0625 18.4871 17.1613 18.6629 17.3371C18.8387 17.5129 18.9375 17.7514 18.9375 18ZM18 13.625C18.1854 13.625 18.3667 13.57 18.5208 13.467C18.675 13.364 18.7952 13.2176 18.8661 13.0463C18.9371 12.875 18.9557 12.6865 18.9195 12.5046C18.8833 12.3227 18.794 12.1557 18.6629 12.0246C18.5318 11.8935 18.3648 11.8042 18.1829 11.768C18.001 11.7318 17.8125 11.7504 17.6412 11.8214C17.4699 11.8923 17.3235 12.0125 17.2205 12.1667C17.1175 12.3208 17.0625 12.5021 17.0625 12.6875C17.0625 12.9361 17.1613 13.1746 17.3371 13.3504C17.5129 13.5262 17.7514 13.625 18 13.625ZM18 22.375C17.8146 22.375 17.6333 22.43 17.4792 22.533C17.325 22.636 17.2048 22.7824 17.1339 22.9537C17.0629 23.125 17.0443 23.3135 17.0805 23.4954C17.1167 23.6773 17.206 23.8443 17.3371 23.9754C17.4682 24.1065 17.6352 24.1958 17.8171 24.232C17.999 24.2682 18.1875 24.2496 18.3588 24.1786C18.5301 24.1077 18.6765 23.9875 18.7795 23.8333C18.8825 23.6792 18.9375 23.4979 18.9375 23.3125C18.9375 23.0639 18.8387 22.8254 18.6629 22.6496C18.4871 22.4738 18.2486 22.375 18 22.375Z" fill="#141414"/>
</svg>
