<svg width="20" height="20" viewBox="0 0 20 20" fill="none" xmlns="http://www.w3.org/2000/svg">
<path d="M17.3324 6.49694C18.1997 8.31085 18.3643 10.3817 17.7945 12.3099C17.2248 14.238 15.961 15.8868 14.247 16.938C12.5331 17.9891 10.4906 18.3681 8.51362 18.0019C6.53667 17.6356 4.76547 16.55 3.54185 14.9547C2.31824 13.3593 1.72895 11.3672 1.88772 9.3629C2.04649 7.3586 2.94206 5.48415 4.4016 4.10132C5.86113 2.71849 7.78116 1.92531 9.79111 1.87488C11.8011 1.82444 13.7585 2.52031 15.2855 3.82819L17.0566 2.05632C17.1739 1.93904 17.3329 1.87316 17.4988 1.87316C17.6646 1.87316 17.8237 1.93904 17.941 2.05632C18.0583 2.17359 18.1241 2.33265 18.1241 2.4985C18.1241 2.66436 18.0583 2.82342 17.941 2.94069L13.0925 7.78991L10.1464 10.736L8.27535 12.6071C8.75909 12.927 9.32231 13.1061 9.902 13.1241C10.4817 13.1422 11.055 12.9986 11.5577 12.7093C12.0604 12.4201 12.4727 11.9967 12.7485 11.4865C13.0242 10.9763 13.1526 10.3994 13.1191 9.82038C13.1098 9.65462 13.1667 9.49194 13.2773 9.36814C13.3879 9.24434 13.5432 9.16955 13.7089 9.16022C13.8747 9.1509 14.0374 9.20781 14.1612 9.31842C14.285 9.42904 14.3598 9.58431 14.3691 9.75007C14.4195 10.6351 14.1999 11.5145 13.7394 12.2719C13.2788 13.0293 12.599 13.629 11.7901 13.9914C10.9811 14.3539 10.0812 14.4621 9.20938 14.3016C8.33759 14.1412 7.53509 13.7197 6.90816 13.093C6.12846 12.3104 5.6737 11.2618 5.63519 10.1577C5.59668 9.05366 5.97728 7.97591 6.70056 7.14086C7.42385 6.30582 8.43626 5.77531 9.53452 5.65587C10.6328 5.53643 11.7356 5.8369 12.6214 6.49694L14.3972 4.71804C13.0947 3.63663 11.4386 3.07457 9.74696 3.13981C8.0553 3.20506 6.4474 3.89301 5.23206 5.07152C4.01672 6.25004 3.27965 7.83603 3.16242 9.52488C3.04518 11.2137 3.55604 12.8863 4.59688 14.2215C5.63772 15.5566 7.13515 16.4601 8.80157 16.7585C10.468 17.0569 12.1859 16.729 13.6253 15.8379C15.0647 14.9469 16.1242 13.5554 16.6002 11.9308C17.0762 10.3062 16.9352 8.56299 16.2043 7.036C16.1328 6.88641 16.1236 6.71454 16.1789 6.55821C16.2341 6.40188 16.3492 6.27389 16.4988 6.20241C16.6484 6.13093 16.8203 6.1218 16.9766 6.17703C17.1329 6.23227 17.2609 6.34734 17.3324 6.49694Z" fill="#187D4F"/>
</svg>
