<svg width="36" height="36" viewBox="0 0 36 36" fill="none" xmlns="http://www.w3.org/2000/svg">
<path d="M0 8C0 3.58172 3.58172 0 8 0H28C32.4183 0 36 3.58172 36 8V28C36 32.4183 32.4183 36 28 36H8C3.58172 36 0 32.4183 0 28V8Z" fill="#F8F8F8"/>
<path d="M25.5 11.75H10.5C10.1685 11.75 9.85054 11.8817 9.61612 12.1161C9.3817 12.3505 9.25 12.6685 9.25 13V14.875C9.25 15.2065 9.3817 15.5245 9.61612 15.7589C9.85054 15.9933 10.1685 16.125 10.5 16.125V23C10.5 23.3315 10.6317 23.6495 10.8661 23.8839C11.1005 24.1183 11.4185 24.25 11.75 24.25H24.25C24.5815 24.25 24.8995 24.1183 25.1339 23.8839C25.3683 23.6495 25.5 23.3315 25.5 23V16.125C25.8315 16.125 26.1495 15.9933 26.3839 15.7589C26.6183 15.5245 26.75 15.2065 26.75 14.875V13C26.75 12.6685 26.6183 12.3505 26.3839 12.1161C26.1495 11.8817 25.8315 11.75 25.5 11.75ZM24.25 23H11.75V16.125H24.25V23ZM25.5 14.875H10.5V13H25.5V14.875ZM15.5 18.625C15.5 18.4592 15.5658 18.3003 15.6831 18.1831C15.8003 18.0658 15.9592 18 16.125 18H19.875C20.0408 18 20.1997 18.0658 20.3169 18.1831C20.4342 18.3003 20.5 18.4592 20.5 18.625C20.5 18.7908 20.4342 18.9497 20.3169 19.0669C20.1997 19.1842 20.0408 19.25 19.875 19.25H16.125C15.9592 19.25 15.8003 19.1842 15.6831 19.0669C15.5658 18.9497 15.5 18.7908 15.5 18.625Z" fill="#141414"/>
</svg>
