<svg width="20" height="20" viewBox="0 0 20 20" fill="none" xmlns="http://www.w3.org/2000/svg">
<path d="M2.125 9.875C2.19066 9.92425 2.26538 9.96008 2.34489 9.98045C2.4244 10.0008 2.50714 10.0053 2.58839 9.99372C2.66964 9.98211 2.74781 9.95462 2.81843 9.9128C2.88906 9.87098 2.95075 9.81567 3 9.75C3.37841 9.24546 3.86909 8.83594 4.43319 8.55389C4.99729 8.27184 5.61932 8.125 6.25 8.125C6.88068 8.125 7.5027 8.27184 8.0668 8.55389C8.63091 8.83594 9.12159 9.24546 9.5 9.75C9.59957 9.88249 9.74769 9.97001 9.91178 9.9933C10.0759 10.0166 10.2425 9.97376 10.375 9.87422C10.4222 9.83909 10.4641 9.79724 10.4992 9.75C10.8776 9.24546 11.3683 8.83594 11.9324 8.55389C12.4965 8.27184 13.1185 8.125 13.7492 8.125C14.3799 8.125 15.0019 8.27184 15.566 8.55389C16.1301 8.83594 16.6208 9.24546 16.9992 9.75C17.0988 9.88261 17.2469 9.97024 17.4111 9.99361C17.5753 10.017 17.742 9.97417 17.8746 9.87461C18.0072 9.77505 18.0948 9.62689 18.1182 9.46273C18.1416 9.29856 18.0988 9.13183 17.9992 8.99922C17.446 8.25756 16.7083 7.67362 15.8594 7.30547C16.3248 6.88058 16.6508 6.32492 16.7947 5.71141C16.9387 5.0979 16.8938 4.45521 16.6659 3.86768C16.438 3.28015 16.0379 2.77524 15.5179 2.4192C14.998 2.06317 14.3825 1.87265 13.7523 1.87265C13.1222 1.87265 12.5067 2.06317 11.9868 2.4192C11.4668 2.77524 11.0667 3.28015 10.8388 3.86768C10.6109 4.45521 10.566 5.0979 10.7099 5.71141C10.8539 6.32492 11.1799 6.88058 11.6453 7.30547C11.0324 7.57051 10.4756 7.94994 10.0047 8.42344C9.53381 7.94994 8.977 7.57051 8.36406 7.30547C8.82944 6.88058 9.1555 6.32492 9.29943 5.71141C9.44336 5.0979 9.39845 4.45521 9.17058 3.86768C8.94272 3.28015 8.54255 2.77524 8.0226 2.4192C7.50265 2.06317 6.8872 1.87265 6.25703 1.87265C5.62686 1.87265 5.01142 2.06317 4.49146 2.4192C3.97151 2.77524 3.57134 3.28015 3.34348 3.86768C3.11562 4.45521 3.0707 5.0979 3.21464 5.71141C3.35857 6.32492 3.68462 6.88058 4.15 7.30547C3.29738 7.67242 2.55602 8.25673 2 9C1.95075 9.06566 1.91492 9.14038 1.89455 9.21989C1.87418 9.2994 1.86967 9.38214 1.88128 9.46339C1.89289 9.54464 1.92039 9.62281 1.9622 9.69344C2.00402 9.76406 2.05934 9.82576 2.125 9.875ZM13.75 3.125C14.1208 3.125 14.4834 3.23497 14.7917 3.441C15.1 3.64703 15.3404 3.93986 15.4823 4.28247C15.6242 4.62508 15.6613 5.00208 15.589 5.3658C15.5166 5.72951 15.338 6.06361 15.0758 6.32583C14.8136 6.58805 14.4795 6.76663 14.1158 6.83898C13.7521 6.91132 13.3751 6.87419 13.0325 6.73228C12.6899 6.59036 12.397 6.35004 12.191 6.0417C11.985 5.73336 11.875 5.37084 11.875 5C11.875 4.50272 12.0725 4.02581 12.4242 3.67418C12.7758 3.32255 13.2527 3.125 13.75 3.125ZM6.25 3.125C6.62084 3.125 6.98335 3.23497 7.29169 3.441C7.60004 3.64703 7.84036 3.93986 7.98227 4.28247C8.12419 4.62508 8.16132 5.00208 8.08897 5.3658C8.01663 5.72951 7.83805 6.06361 7.57583 6.32583C7.3136 6.58805 6.97951 6.76663 6.61579 6.83898C6.25208 6.91132 5.87508 6.87419 5.53247 6.73228C5.18986 6.59036 4.89702 6.35004 4.69099 6.0417C4.48497 5.73336 4.375 5.37084 4.375 5C4.375 4.50272 4.57254 4.02581 4.92417 3.67418C5.27581 3.32255 5.75272 3.125 6.25 3.125ZM15.8594 15.4305C16.3248 15.0056 16.6508 14.4499 16.7947 13.8364C16.9387 13.2229 16.8938 12.5802 16.6659 11.9927C16.438 11.4051 16.0379 10.9002 15.5179 10.5442C14.998 10.1882 14.3825 9.99765 13.7523 9.99765C13.1222 9.99765 12.5067 10.1882 11.9868 10.5442C11.4668 10.9002 11.0667 11.4051 10.8388 11.9927C10.6109 12.5802 10.566 13.2229 10.7099 13.8364C10.8539 14.4499 11.1799 15.0056 11.6453 15.4305C11.0324 15.6955 10.4756 16.0749 10.0047 16.5484C9.53381 16.0749 8.977 15.6955 8.36406 15.4305C8.82944 15.0056 9.1555 14.4499 9.29943 13.8364C9.44336 13.2229 9.39845 12.5802 9.17058 11.9927C8.94272 11.4051 8.54255 10.9002 8.0226 10.5442C7.50265 10.1882 6.8872 9.99765 6.25703 9.99765C5.62686 9.99765 5.01142 10.1882 4.49146 10.5442C3.97151 10.9002 3.57134 11.4051 3.34348 11.9927C3.11562 12.5802 3.0707 13.2229 3.21464 13.8364C3.35857 14.4499 3.68462 15.0056 4.15 15.4305C3.29738 15.7974 2.55602 16.3817 2 17.125C1.95075 17.1907 1.91492 17.2654 1.89455 17.3449C1.87418 17.4244 1.86967 17.5071 1.88128 17.5884C1.89289 17.6696 1.92039 17.7478 1.9622 17.8184C2.00402 17.8891 2.05934 17.9508 2.125 18C2.19066 18.0492 2.26538 18.0851 2.34489 18.1054C2.4244 18.1258 2.50714 18.1303 2.58839 18.1187C2.66964 18.1071 2.74781 18.0796 2.81843 18.0378C2.88906 17.996 2.95075 17.9407 3 17.875C3.37841 17.3705 3.86909 16.9609 4.43319 16.6789C4.99729 16.3968 5.61932 16.25 6.25 16.25C6.88068 16.25 7.5027 16.3968 8.0668 16.6789C8.63091 16.9609 9.12159 17.3705 9.5 17.875C9.59957 18.0075 9.74769 18.095 9.91178 18.1183C10.0759 18.1416 10.2425 18.0988 10.375 17.9992C10.4222 17.9641 10.4641 17.9222 10.4992 17.875C10.8776 17.3705 11.3683 16.9609 11.9324 16.6789C12.4965 16.3968 13.1185 16.25 13.7492 16.25C14.3799 16.25 15.0019 16.3968 15.566 16.6789C16.1301 16.9609 16.6208 17.3705 16.9992 17.875C17.0988 18.0076 17.2469 18.0952 17.4111 18.1186C17.5753 18.142 17.742 18.0992 17.8746 17.9996C18.0072 17.9001 18.0948 17.7519 18.1182 17.5877C18.1416 17.4236 18.0988 17.2568 17.9992 17.1242C17.446 16.3826 16.7083 15.7986 15.8594 15.4305ZM6.25 11.25C6.62084 11.25 6.98335 11.36 7.29169 11.566C7.60004 11.772 7.84036 12.0649 7.98227 12.4075C8.12419 12.7501 8.16132 13.1271 8.08897 13.4908C8.01663 13.8545 7.83805 14.1886 7.57583 14.4508C7.3136 14.7131 6.97951 14.8916 6.61579 14.964C6.25208 15.0363 5.87508 14.9992 5.53247 14.8573C5.18986 14.7154 4.89702 14.475 4.69099 14.1667C4.48497 13.8584 4.375 13.4958 4.375 13.125C4.375 12.6277 4.57254 12.1508 4.92417 11.7992C5.27581 11.4475 5.75272 11.25 6.25 11.25ZM13.75 11.25C14.1208 11.25 14.4834 11.36 14.7917 11.566C15.1 11.772 15.3404 12.0649 15.4823 12.4075C15.6242 12.7501 15.6613 13.1271 15.589 13.4908C15.5166 13.8545 15.338 14.1886 15.0758 14.4508C14.8136 14.7131 14.4795 14.8916 14.1158 14.964C13.7521 15.0363 13.3751 14.9992 13.0325 14.8573C12.6899 14.7154 12.397 14.475 12.191 14.1667C11.985 13.8584 11.875 13.4958 11.875 13.125C11.875 12.6277 12.0725 12.1508 12.4242 11.7992C12.7758 11.4475 13.2527 11.25 13.75 11.25Z" fill="#141414"/>
</svg>
