<svg width="18" height="18" viewBox="0 0 18 18" fill="none" xmlns="http://www.w3.org/2000/svg">
<path d="M16.4218 10.0005C16.3496 9.92823 16.2592 9.87693 16.1601 9.85216C16.061 9.82738 15.957 9.83006 15.8593 9.85991C14.7867 10.1842 13.6463 10.2113 12.5595 9.93857C11.4727 9.66579 10.4803 9.10328 9.68794 8.31096C8.89562 7.51864 8.3331 6.5262 8.06033 5.4394C7.78755 4.3526 7.81474 3.21216 8.13899 2.13959C8.16908 2.04186 8.17197 1.93777 8.14733 1.83852C8.12268 1.73928 8.07146 1.64862 7.99915 1.57631C7.92684 1.504 7.83618 1.45277 7.73693 1.42813C7.63769 1.40349 7.5336 1.40637 7.43586 1.43647C5.95299 1.89072 4.65116 2.80109 3.71563 4.03803C2.89748 5.12426 2.39843 6.41711 2.27455 7.77132C2.15067 9.12554 2.40686 10.4875 3.01434 11.7041C3.62182 12.9208 4.55653 13.9439 5.71344 14.6586C6.87036 15.3733 8.20365 15.7513 9.56352 15.75C11.15 15.7549 12.6943 15.2391 13.9595 14.2819C15.1964 13.3463 16.1068 12.0445 16.561 10.5616C16.5908 10.4643 16.5935 10.3606 16.569 10.2618C16.5445 10.163 16.4936 10.0727 16.4218 10.0005ZM13.2831 13.3833C12.0916 14.2806 10.6162 14.7174 9.12825 14.6132C7.64034 14.5091 6.24013 13.8709 5.1854 12.8163C4.13067 11.7616 3.4924 10.3615 3.38809 8.87356C3.28379 7.38565 3.72047 5.91014 4.61774 4.71866C5.20232 3.94667 5.95808 3.32088 6.82555 2.89053C6.77614 3.23733 6.75123 3.58718 6.75102 3.93748C6.75307 5.87625 7.52415 7.73502 8.89506 9.10594C10.266 10.4769 12.1248 11.2479 14.0635 11.25C14.4145 11.2499 14.7651 11.225 15.1126 11.1755C14.6818 12.0431 14.0556 12.7988 13.2831 13.3833Z" fill="#141414"/>
</svg>
