<svg width="40" height="40" viewBox="0 0 40 40" fill="none" xmlns="http://www.w3.org/2000/svg">
<path d="M0 8C0 3.58172 3.58172 0 8 0H32C36.4183 0 40 3.58172 40 8V32C40 36.4183 36.4183 40 32 40H8C3.58172 40 0 36.4183 0 32V8Z" fill="#F8F8F8"/>
<path d="M26.875 13.75V17.5C26.875 17.6658 26.8092 17.8247 26.6919 17.9419C26.5747 18.0592 26.4158 18.125 26.25 18.125C26.0842 18.125 25.9253 18.0592 25.8081 17.9419C25.6908 17.8247 25.625 17.6658 25.625 17.5V15.2586L22.3172 18.5672C22.1999 18.6845 22.0409 18.7503 21.875 18.7503C21.7091 18.7503 21.5501 18.6845 21.4328 18.5672C21.3155 18.4499 21.2497 18.2909 21.2497 18.125C21.2497 17.9591 21.3155 17.8001 21.4328 17.6828L24.7414 14.375H22.5C22.3342 14.375 22.1753 14.3092 22.0581 14.1919C21.9408 14.0747 21.875 13.9158 21.875 13.75C21.875 13.5842 21.9408 13.4253 22.0581 13.3081C22.1753 13.1908 22.3342 13.125 22.5 13.125H26.25C26.4158 13.125 26.5747 13.1908 26.6919 13.3081C26.8092 13.4253 26.875 13.5842 26.875 13.75ZM17.6828 21.4328L14.375 24.7414V22.5C14.375 22.3342 14.3092 22.1753 14.1919 22.0581C14.0747 21.9408 13.9158 21.875 13.75 21.875C13.5842 21.875 13.4253 21.9408 13.3081 22.0581C13.1908 22.1753 13.125 22.3342 13.125 22.5V26.25C13.125 26.4158 13.1908 26.5747 13.3081 26.6919C13.4253 26.8092 13.5842 26.875 13.75 26.875H17.5C17.6658 26.875 17.8247 26.8092 17.9419 26.6919C18.0592 26.5747 18.125 26.4158 18.125 26.25C18.125 26.0842 18.0592 25.9253 17.9419 25.8081C17.8247 25.6908 17.6658 25.625 17.5 25.625H15.2586L18.5672 22.3172C18.6845 22.1999 18.7503 22.0409 18.7503 21.875C18.7503 21.7091 18.6845 21.5501 18.5672 21.4328C18.4499 21.3155 18.2909 21.2497 18.125 21.2497C17.9591 21.2497 17.8001 21.3155 17.6828 21.4328ZM26.25 21.875C26.0842 21.875 25.9253 21.9408 25.8081 22.0581C25.6908 22.1753 25.625 22.3342 25.625 22.5V24.7414L22.3172 21.4328C22.1999 21.3155 22.0409 21.2497 21.875 21.2497C21.7091 21.2497 21.5501 21.3155 21.4328 21.4328C21.3155 21.5501 21.2497 21.7091 21.2497 21.875C21.2497 22.0409 21.3155 22.1999 21.4328 22.3172L24.7414 25.625H22.5C22.3342 25.625 22.1753 25.6908 22.0581 25.8081C21.9408 25.9253 21.875 26.0842 21.875 26.25C21.875 26.4158 21.9408 26.5747 22.0581 26.6919C22.1753 26.8092 22.3342 26.875 22.5 26.875H26.25C26.4158 26.875 26.5747 26.8092 26.6919 26.6919C26.8092 26.5747 26.875 26.4158 26.875 26.25V22.5C26.875 22.3342 26.8092 22.1753 26.6919 22.0581C26.5747 21.9408 26.4158 21.875 26.25 21.875ZM15.2586 14.375H17.5C17.6658 14.375 17.8247 14.3092 17.9419 14.1919C18.0592 14.0747 18.125 13.9158 18.125 13.75C18.125 13.5842 18.0592 13.4253 17.9419 13.3081C17.8247 13.1908 17.6658 13.125 17.5 13.125H13.75C13.5842 13.125 13.4253 13.1908 13.3081 13.3081C13.1908 13.4253 13.125 13.5842 13.125 13.75V17.5C13.125 17.6658 13.1908 17.8247 13.3081 17.9419C13.4253 18.0592 13.5842 18.125 13.75 18.125C13.9158 18.125 14.0747 18.0592 14.1919 17.9419C14.3092 17.8247 14.375 17.6658 14.375 17.5V15.2586L17.6828 18.5672C17.8001 18.6845 17.9591 18.7503 18.125 18.7503C18.2909 18.7503 18.4499 18.6845 18.5672 18.5672C18.6845 18.4499 18.7503 18.2909 18.7503 18.125C18.7503 17.9591 18.6845 17.8001 18.5672 17.6828L15.2586 14.375Z" fill="#141414"/>
</svg>
