<svg width="40" height="40" viewBox="0 0 40 40" fill="none" xmlns="http://www.w3.org/2000/svg">
<path d="M0 8C0 3.58172 3.58172 0 8 0H32C36.4183 0 40 3.58172 40 8V32C40 36.4183 36.4183 40 32 40H8C3.58172 40 0 36.4183 0 32V8Z" fill="#F8F8F8"/>
<path d="M27.3547 14.5992C27.296 14.529 27.2226 14.4725 27.1398 14.4338C27.0569 14.3951 26.9665 14.375 26.875 14.375H14.2719L13.8898 12.2766C13.8375 11.9885 13.6858 11.728 13.461 11.5404C13.2363 11.3528 12.9529 11.25 12.6602 11.25H11.25C11.0842 11.25 10.9253 11.3158 10.8081 11.4331C10.6908 11.5503 10.625 11.7092 10.625 11.875C10.625 12.0408 10.6908 12.1997 10.8081 12.3169C10.9253 12.4342 11.0842 12.5 11.25 12.5H12.6562L14.6531 23.4602C14.7119 23.7852 14.8556 24.0889 15.0695 24.3406C14.7743 24.6164 14.5611 24.9686 14.4538 25.3581C14.3465 25.7477 14.3491 26.1593 14.4614 26.5474C14.5738 26.9355 14.7914 27.2849 15.0902 27.5569C15.389 27.8289 15.7573 28.0128 16.1542 28.0883C16.5511 28.1637 16.9612 28.1278 17.3389 27.9844C17.7167 27.841 18.0473 27.5958 18.2943 27.276C18.5412 26.9562 18.6947 26.5742 18.7377 26.1725C18.7808 25.7707 18.7118 25.3649 18.5383 25H22.0867C21.9469 25.2927 21.8745 25.6131 21.875 25.9375C21.875 26.3701 22.0033 26.7931 22.2437 27.1528C22.484 27.5125 22.8257 27.7929 23.2254 27.9585C23.6251 28.1241 24.0649 28.1674 24.4893 28.083C24.9136 27.9986 25.3034 27.7902 25.6093 27.4843C25.9152 27.1784 26.1236 26.7886 26.208 26.3643C26.2924 25.9399 26.2491 25.5001 26.0835 25.1004C25.9179 24.7007 25.6375 24.359 25.2778 24.1187C24.9181 23.8783 24.4951 23.75 24.0625 23.75H16.4977C16.3513 23.75 16.2096 23.6986 16.0972 23.6048C15.9849 23.511 15.909 23.3807 15.8828 23.2367L15.6352 21.875H24.6977C25.1368 21.8749 25.5619 21.7208 25.899 21.4394C26.2361 21.158 26.4637 20.7672 26.5422 20.3352L27.4922 15.1117C27.5083 15.0214 27.5043 14.9287 27.4805 14.8402C27.4568 14.7516 27.4138 14.6693 27.3547 14.5992ZM17.5 25.9375C17.5 26.1229 17.445 26.3042 17.342 26.4583C17.239 26.6125 17.0926 26.7327 16.9213 26.8036C16.75 26.8746 16.5615 26.8932 16.3796 26.857C16.1977 26.8208 16.0307 26.7315 15.8996 26.6004C15.7685 26.4693 15.6792 26.3023 15.643 26.1204C15.6068 25.9385 15.6254 25.75 15.6964 25.5787C15.7673 25.4074 15.8875 25.261 16.0417 25.158C16.1958 25.055 16.3771 25 16.5625 25C16.8111 25 17.0496 25.0988 17.2254 25.2746C17.4012 25.4504 17.5 25.6889 17.5 25.9375ZM25 25.9375C25 26.1229 24.945 26.3042 24.842 26.4583C24.739 26.6125 24.5926 26.7327 24.4213 26.8036C24.25 26.8746 24.0615 26.8932 23.8796 26.857C23.6977 26.8208 23.5307 26.7315 23.3996 26.6004C23.2685 26.4693 23.1792 26.3023 23.143 26.1204C23.1068 25.9385 23.1254 25.75 23.1964 25.5787C23.2673 25.4074 23.3875 25.261 23.5417 25.158C23.6958 25.055 23.8771 25 24.0625 25C24.3111 25 24.5496 25.0988 24.7254 25.2746C24.9012 25.4504 25 25.6889 25 25.9375ZM25.3125 20.1117C25.2863 20.2561 25.21 20.3867 25.0972 20.4805C24.9844 20.5744 24.8421 20.6255 24.6953 20.625H15.4078L14.4992 15.625H26.1258L25.3125 20.1117Z" fill="#141414"/>
</svg>
