<svg width="40" height="40" viewBox="0 0 40 40" fill="none" xmlns="http://www.w3.org/2000/svg">
<path d="M0 8C0 3.58172 3.58172 0 8 0H32C36.4183 0 40 3.58172 40 8V32C40 36.4183 36.4183 40 32 40H8C3.58172 40 0 36.4183 0 32V8Z" fill="#F8F8F8"/>
<path d="M28.125 26.25C28.125 26.4158 28.0592 26.5747 27.9419 26.6919C27.8247 26.8092 27.6658 26.875 27.5 26.875H12.5C12.3342 26.875 12.1753 26.8092 12.0581 26.6919C11.9408 26.5747 11.875 26.4158 11.875 26.25V13.75C11.875 13.5842 11.9408 13.4253 12.0581 13.3081C12.1753 13.1908 12.3342 13.125 12.5 13.125C12.6658 13.125 12.8247 13.1908 12.9419 13.3081C13.0592 13.4253 13.125 13.5842 13.125 13.75V22.2414L17.0578 18.3078C17.1159 18.2497 17.1848 18.2036 17.2607 18.1722C17.3365 18.1407 17.4179 18.1245 17.5 18.1245C17.5821 18.1245 17.6635 18.1407 17.7393 18.1722C17.8152 18.2036 17.8841 18.2497 17.9422 18.3078L20 20.3664L24.1164 16.25H22.5C22.3342 16.25 22.1753 16.1842 22.0581 16.0669C21.9408 15.9497 21.875 15.7908 21.875 15.625C21.875 15.4592 21.9408 15.3003 22.0581 15.1831C22.1753 15.0658 22.3342 15 22.5 15H25.625C25.7908 15 25.9497 15.0658 26.0669 15.1831C26.1842 15.3003 26.25 15.4592 26.25 15.625V18.75C26.25 18.9158 26.1842 19.0747 26.0669 19.1919C25.9497 19.3092 25.7908 19.375 25.625 19.375C25.4592 19.375 25.3003 19.3092 25.1831 19.1919C25.0658 19.0747 25 18.9158 25 18.75V17.1336L20.4422 21.6922C20.3841 21.7503 20.3152 21.7964 20.2393 21.8279C20.1635 21.8593 20.0821 21.8755 20 21.8755C19.9179 21.8755 19.8365 21.8593 19.7607 21.8279C19.6848 21.7964 19.6159 21.7503 19.5578 21.6922L17.5 19.6336L13.125 24.0086V25.625H27.5C27.6658 25.625 27.8247 25.6908 27.9419 25.8081C28.0592 25.9253 28.125 26.0842 28.125 26.25Z" fill="#141414"/>
</svg>
