<svg width="48" height="48" viewBox="0 0 48 48" fill="none" xmlns="http://www.w3.org/2000/svg">
<path d="M0 12C0 5.37258 5.37258 0 12 0H36C42.6274 0 48 5.37258 48 12V36C48 42.6274 42.6274 48 36 48H12C5.37258 48 0 42.6274 0 36V12Z" fill="#F8F8F8"/>
<path d="M24 14.25C22.0716 14.25 20.1866 14.8218 18.5832 15.8932C16.9798 16.9645 15.7301 18.4873 14.9922 20.2688C14.2542 22.0504 14.0611 24.0108 14.4373 25.9021C14.8136 27.7934 15.7422 29.5307 17.1057 30.8943C18.4693 32.2579 20.2066 33.1865 22.0979 33.5627C23.9892 33.9389 25.9496 33.7458 27.7312 33.0078C29.5127 32.2699 31.0355 31.0202 32.1068 29.4168C33.1782 27.8134 33.75 25.9284 33.75 24C33.7473 21.415 32.7192 18.9366 30.8913 17.1087C29.0634 15.2808 26.585 14.2527 24 14.25ZM23.25 19.5C23.25 19.3011 23.329 19.1103 23.4697 18.9697C23.6103 18.829 23.8011 18.75 24 18.75C24.1989 18.75 24.3897 18.829 24.5303 18.9697C24.671 19.1103 24.75 19.3011 24.75 19.5V24.75C24.75 24.9489 24.671 25.1397 24.5303 25.2803C24.3897 25.421 24.1989 25.5 24 25.5C23.8011 25.5 23.6103 25.421 23.4697 25.2803C23.329 25.1397 23.25 24.9489 23.25 24.75V19.5ZM24 29.25C23.7775 29.25 23.56 29.184 23.375 29.0604C23.19 28.9368 23.0458 28.7611 22.9606 28.5555C22.8755 28.35 22.8532 28.1238 22.8966 27.9055C22.94 27.6873 23.0472 27.4868 23.2045 27.3295C23.3618 27.1722 23.5623 27.065 23.7805 27.0216C23.9988 26.9782 24.225 27.0005 24.4305 27.0856C24.6361 27.1708 24.8118 27.315 24.9354 27.5C25.059 27.685 25.125 27.9025 25.125 28.125C25.125 28.4234 25.0065 28.7095 24.7955 28.9205C24.5845 29.1315 24.2984 29.25 24 29.25Z" fill="#187D4F"/>
</svg>
