<svg width="48" height="48" viewBox="0 0 48 48" fill="none" xmlns="http://www.w3.org/2000/svg">
<path d="M0 12C0 5.37258 5.37258 0 12 0H36C42.6274 0 48 5.37258 48 12V36C48 42.6274 42.6274 48 36 48H12C5.37258 48 0 42.6274 0 36V12Z" fill="#F8F8F8"/>
<path d="M32.8256 17.5191C32.7552 17.4348 32.6672 17.3671 32.5677 17.3206C32.4683 17.2741 32.3598 17.25 32.25 17.25H17.1263L16.6678 14.7319C16.605 14.3863 16.4229 14.0736 16.1533 13.8485C15.8836 13.6234 15.5435 13.5001 15.1922 13.5H13.5C13.3011 13.5 13.1103 13.579 12.9697 13.7197C12.829 13.8603 12.75 14.0511 12.75 14.25C12.75 14.4489 12.829 14.6397 12.9697 14.7803C13.1103 14.921 13.3011 15 13.5 15H15.1875L17.5838 28.1522C17.6543 28.5422 17.8267 28.9067 18.0834 29.2087C17.7291 29.5397 17.4734 29.9623 17.3446 30.4298C17.2157 30.8972 17.2189 31.3912 17.3537 31.8569C17.4885 32.3226 17.7497 32.7419 18.1082 33.0683C18.4668 33.3947 18.9087 33.6154 19.385 33.7059C19.8613 33.7965 20.3534 33.7533 20.8067 33.5813C21.26 33.4092 21.6568 33.115 21.9531 32.7312C22.2494 32.3474 22.4336 31.889 22.4853 31.407C22.537 30.9249 22.4541 30.4379 22.2459 30H26.5041C26.3363 30.3513 26.2495 30.7357 26.25 31.125C26.25 31.6442 26.404 32.1517 26.6924 32.5834C26.9808 33.0151 27.3908 33.3515 27.8705 33.5502C28.3501 33.7489 28.8779 33.8008 29.3871 33.6996C29.8963 33.5983 30.364 33.3483 30.7312 32.9812C31.0983 32.614 31.3483 32.1463 31.4496 31.6371C31.5508 31.1279 31.4989 30.6001 31.3002 30.1205C31.1015 29.6408 30.7651 29.2308 30.3334 28.9424C29.9017 28.654 29.3942 28.5 28.875 28.5H19.7972C19.6215 28.5 19.4515 28.4383 19.3167 28.3257C19.1818 28.2132 19.0908 28.0569 19.0594 27.8841L18.7622 26.25H29.6372C30.1641 26.2499 30.6743 26.0649 31.0788 25.7272C31.4833 25.3896 31.7564 24.9206 31.8506 24.4022L32.9906 18.1341C33.0099 18.0257 33.0051 17.9145 32.9766 17.8082C32.9481 17.7019 32.8966 17.6032 32.8256 17.5191ZM28.875 30C29.0975 30 29.315 30.066 29.5 30.1896C29.685 30.3132 29.8292 30.4889 29.9144 30.6945C29.9995 30.9 30.0218 31.1262 29.9784 31.3445C29.935 31.5627 29.8278 31.7632 29.6705 31.9205C29.5132 32.0778 29.3127 32.185 29.0945 32.2284C28.8762 32.2718 28.65 32.2495 28.4445 32.1644C28.2389 32.0792 28.0632 31.935 27.9396 31.75C27.816 31.565 27.75 31.3475 27.75 31.125C27.75 30.8266 27.8685 30.5405 28.0795 30.3295C28.2905 30.1185 28.5766 30 28.875 30ZM19.875 30C20.0975 30 20.315 30.066 20.5 30.1896C20.685 30.3132 20.8292 30.4889 20.9144 30.6945C20.9995 30.9 21.0218 31.1262 20.9784 31.3445C20.935 31.5627 20.8278 31.7632 20.6705 31.9205C20.5132 32.0778 20.3127 32.185 20.0945 32.2284C19.8762 32.2718 19.65 32.2495 19.4445 32.1644C19.2389 32.0792 19.0632 31.935 18.9396 31.75C18.816 31.565 18.75 31.3475 18.75 31.125C18.75 30.8266 18.8685 30.5405 19.0795 30.3295C19.2905 30.1185 19.5766 30 19.875 30Z" fill="#187D4F"/>
</svg>
