<svg width="48" height="48" viewBox="0 0 48 48" fill="none" xmlns="http://www.w3.org/2000/svg">
<path d="M0 12C0 5.37258 5.37258 0 12 0H36C42.6274 0 48 5.37258 48 12V36C48 42.6274 42.6274 48 36 48H12C5.37258 48 0 42.6274 0 36V12Z" fill="#F8F8F8"/>
<path d="M18.9694 19.2806C18.8996 19.211 18.8443 19.1283 18.8066 19.0372C18.7688 18.9462 18.7494 18.8486 18.7494 18.75C18.7494 18.6514 18.7688 18.5538 18.8066 18.4628C18.8443 18.3717 18.8996 18.289 18.9694 18.2194L23.4694 13.7194C23.539 13.6496 23.6217 13.5943 23.7128 13.5566C23.8038 13.5188 23.9014 13.4994 24 13.4994C24.0986 13.4994 24.1962 13.5188 24.2872 13.5566C24.3783 13.5943 24.461 13.6496 24.5306 13.7194L29.0306 18.2194C29.1714 18.3601 29.2504 18.551 29.2504 18.75C29.2504 18.949 29.1714 19.1399 29.0306 19.2806C28.8899 19.4214 28.699 19.5004 28.5 19.5004C28.301 19.5004 28.1101 19.4214 27.9694 19.2806L24.75 16.0603V24C24.75 24.1989 24.671 24.3897 24.5303 24.5303C24.3897 24.671 24.1989 24.75 24 24.75C23.8011 24.75 23.6103 24.671 23.4697 24.5303C23.329 24.3897 23.25 24.1989 23.25 24V16.0603L20.0306 19.2806C19.961 19.3504 19.8783 19.4057 19.7872 19.4434C19.6962 19.4812 19.5986 19.5006 19.5 19.5006C19.4014 19.5006 19.3038 19.4812 19.2128 19.4434C19.1217 19.4057 19.039 19.3504 18.9694 19.2806ZM34.5 24.75V30.75C34.5 31.1478 34.342 31.5294 34.0607 31.8107C33.7794 32.092 33.3978 32.25 33 32.25H15C14.6022 32.25 14.2206 32.092 13.9393 31.8107C13.658 31.5294 13.5 31.1478 13.5 30.75V24.75C13.5 24.3522 13.658 23.9706 13.9393 23.6893C14.2206 23.408 14.6022 23.25 15 23.25H21.375C21.4745 23.25 21.5698 23.2895 21.6402 23.3598C21.7105 23.4302 21.75 23.5255 21.75 23.625V23.9494C21.75 25.2103 22.7813 26.2734 24.0431 26.25C24.6324 26.2387 25.1936 25.9967 25.6063 25.5759C26.019 25.1552 26.2501 24.5893 26.25 24V23.625C26.25 23.5255 26.2895 23.4302 26.3598 23.3598C26.4302 23.2895 26.5255 23.25 26.625 23.25H33C33.3978 23.25 33.7794 23.408 34.0607 23.6893C34.342 23.9706 34.5 24.3522 34.5 24.75ZM30.75 27.75C30.75 27.5275 30.684 27.31 30.5604 27.125C30.4368 26.94 30.2611 26.7958 30.0555 26.7106C29.85 26.6255 29.6238 26.6032 29.4055 26.6466C29.1873 26.69 28.9868 26.7972 28.8295 26.9545C28.6722 27.1118 28.565 27.3123 28.5216 27.5305C28.4782 27.7488 28.5005 27.9749 28.5856 28.1805C28.6708 28.3861 28.815 28.5618 29 28.6854C29.185 28.809 29.4025 28.875 29.625 28.875C29.9234 28.875 30.2095 28.7565 30.4205 28.5455C30.6315 28.3345 30.75 28.0484 30.75 27.75Z" fill="#187D4F"/>
</svg>
