<svg width="48" height="48" viewBox="0 0 48 48" fill="none" xmlns="http://www.w3.org/2000/svg">
<path d="M0 12C0 5.37258 5.37258 0 12 0H36C42.6274 0 48 5.37258 48 12V36C48 42.6274 42.6274 48 36 48H12C5.37258 48 0 42.6274 0 36V12Z" fill="#F8F8F8"/>
<path d="M24 14.25C22.0716 14.25 20.1866 14.8218 18.5832 15.8932C16.9798 16.9645 15.7301 18.4873 14.9922 20.2688C14.2542 22.0504 14.0611 24.0108 14.4373 25.9021C14.8136 27.7934 15.7422 29.5307 17.1057 30.8943C18.4693 32.2579 20.2066 33.1865 22.0979 33.5627C23.9892 33.9389 25.9496 33.7458 27.7312 33.0078C29.5127 32.2699 31.0355 31.0202 32.1068 29.4168C33.1782 27.8134 33.75 25.9284 33.75 24C33.7473 21.415 32.7192 18.9366 30.8913 17.1087C29.0634 15.2808 26.585 14.2527 24 14.25ZM25.125 28.5H24.75V29.25C24.75 29.4489 24.671 29.6397 24.5303 29.7803C24.3897 29.921 24.1989 30 24 30C23.8011 30 23.6103 29.921 23.4697 29.7803C23.329 29.6397 23.25 29.4489 23.25 29.25V28.5H21.75C21.5511 28.5 21.3603 28.421 21.2197 28.2803C21.079 28.1397 21 27.9489 21 27.75C21 27.5511 21.079 27.3603 21.2197 27.2197C21.3603 27.079 21.5511 27 21.75 27H25.125C25.4234 27 25.7095 26.8815 25.9205 26.6705C26.1315 26.4595 26.25 26.1734 26.25 25.875C26.25 25.5766 26.1315 25.2905 25.9205 25.0795C25.7095 24.8685 25.4234 24.75 25.125 24.75H22.875C22.1788 24.75 21.5111 24.4734 21.0188 23.9812C20.5266 23.4889 20.25 22.8212 20.25 22.125C20.25 21.4288 20.5266 20.7611 21.0188 20.2688C21.5111 19.7766 22.1788 19.5 22.875 19.5H23.25V18.75C23.25 18.5511 23.329 18.3603 23.4697 18.2197C23.6103 18.079 23.8011 18 24 18C24.1989 18 24.3897 18.079 24.5303 18.2197C24.671 18.3603 24.75 18.5511 24.75 18.75V19.5H26.25C26.4489 19.5 26.6397 19.579 26.7803 19.7197C26.921 19.8603 27 20.0511 27 20.25C27 20.4489 26.921 20.6397 26.7803 20.7803C26.6397 20.921 26.4489 21 26.25 21H22.875C22.5766 21 22.2905 21.1185 22.0795 21.3295C21.8685 21.5405 21.75 21.8266 21.75 22.125C21.75 22.4234 21.8685 22.7095 22.0795 22.9205C22.2905 23.1315 22.5766 23.25 22.875 23.25H25.125C25.8212 23.25 26.4889 23.5266 26.9812 24.0188C27.4734 24.5111 27.75 25.1788 27.75 25.875C27.75 26.5712 27.4734 27.2389 26.9812 27.7312C26.4889 28.2234 25.8212 28.5 25.125 28.5Z" fill="#187D4F"/>
</svg>
