<svg width="40" height="40" viewBox="0 0 40 40" fill="none" xmlns="http://www.w3.org/2000/svg">
<path d="M0 8C0 3.58172 3.58172 0 8 0H32C36.4183 0 40 3.58172 40 8V32C40 36.4183 36.4183 40 32 40H8C3.58172 40 0 36.4183 0 32V8Z" fill="#F8F8F8"/>
<path d="M26.6922 15.1828L23.5672 12.0578C23.5091 11.9998 23.4402 11.9538 23.3643 11.9224C23.2884 11.891 23.2071 11.8749 23.125 11.875H16.875C16.5435 11.875 16.2255 12.0067 15.9911 12.2411C15.7567 12.4755 15.625 12.7935 15.625 13.125V14.375H14.375C14.0435 14.375 13.7255 14.5067 13.4911 14.7411C13.2567 14.9755 13.125 15.2935 13.125 15.625V26.875C13.125 27.2065 13.2567 27.5245 13.4911 27.7589C13.7255 27.9933 14.0435 28.125 14.375 28.125H23.125C23.4565 28.125 23.7745 27.9933 24.0089 27.7589C24.2433 27.5245 24.375 27.2065 24.375 26.875V25.625H25.625C25.9565 25.625 26.2745 25.4933 26.5089 25.2589C26.7433 25.0245 26.875 24.7065 26.875 24.375V15.625C26.8751 15.5429 26.859 15.4616 26.8276 15.3857C26.7962 15.3098 26.7502 15.2409 26.6922 15.1828ZM23.125 26.875H14.375V15.625H20.3664L23.125 18.3836V24.9875C23.125 24.9922 23.125 24.9961 23.125 25C23.125 25.0039 23.125 25.0078 23.125 25.0125V26.875ZM25.625 24.375H24.375V18.125C24.3751 18.0429 24.359 17.9616 24.3276 17.8857C24.2962 17.8098 24.2502 17.7409 24.1922 17.6828L21.0672 14.5578C21.0091 14.4998 20.9402 14.4538 20.8643 14.4224C20.7884 14.391 20.7071 14.3749 20.625 14.375H16.875V13.125H22.8664L25.625 15.8836V24.375ZM21.25 21.875C21.25 22.0408 21.1842 22.1997 21.0669 22.3169C20.9497 22.4342 20.7908 22.5 20.625 22.5H16.875C16.7092 22.5 16.5503 22.4342 16.4331 22.3169C16.3158 22.1997 16.25 22.0408 16.25 21.875C16.25 21.7092 16.3158 21.5503 16.4331 21.4331C16.5503 21.3158 16.7092 21.25 16.875 21.25H20.625C20.7908 21.25 20.9497 21.3158 21.0669 21.4331C21.1842 21.5503 21.25 21.7092 21.25 21.875ZM21.25 24.375C21.25 24.5408 21.1842 24.6997 21.0669 24.8169C20.9497 24.9342 20.7908 25 20.625 25H16.875C16.7092 25 16.5503 24.9342 16.4331 24.8169C16.3158 24.6997 16.25 24.5408 16.25 24.375C16.25 24.2092 16.3158 24.0503 16.4331 23.9331C16.5503 23.8158 16.7092 23.75 16.875 23.75H20.625C20.7908 23.75 20.9497 23.8158 21.0669 23.9331C21.1842 24.0503 21.25 24.2092 21.25 24.375Z" fill="#141414"/>
</svg>
