<svg width="20" height="20" viewBox="0 0 20 20" fill="none" xmlns="http://www.w3.org/2000/svg">
<path d="M17.9429 17.0578L14.0311 13.1469C15.1649 11.7857 15.7303 10.0398 15.6096 8.27244C15.4889 6.50505 14.6915 4.85222 13.3833 3.65778C12.075 2.46334 10.3566 1.81925 8.58559 1.8595C6.81455 1.89975 5.1272 2.62124 3.87456 3.87388C2.62192 5.12652 1.90043 6.81387 1.86018 8.58491C1.81993 10.356 2.46402 12.0743 3.65846 13.3826C4.8529 14.6909 6.50573 15.4883 8.27312 15.6089C10.0405 15.7296 11.7864 15.1642 13.1475 14.0305L17.0585 17.9422C17.1165 18.0002 17.1855 18.0463 17.2614 18.0777C17.3372 18.1092 17.4185 18.1253 17.5007 18.1253C17.5828 18.1253 17.6641 18.1092 17.74 18.0777C17.8158 18.0463 17.8848 18.0002 17.9429 17.9422C18.0009 17.8841 18.047 17.8152 18.0784 17.7393C18.1098 17.6634 18.126 17.5821 18.126 17.5C18.126 17.4179 18.1098 17.3365 18.0784 17.2607C18.047 17.1848 18.0009 17.1159 17.9429 17.0578ZM3.12567 8.74999C3.12567 7.63747 3.45557 6.54993 4.07365 5.62491C4.69173 4.69988 5.57024 3.97891 6.59807 3.55317C7.62591 3.12742 8.75691 3.01603 9.84805 3.23307C10.9392 3.45011 11.9415 3.98584 12.7281 4.77251C13.5148 5.55918 14.0505 6.56146 14.2676 7.65261C14.4846 8.74375 14.3732 9.87475 13.9475 10.9026C13.5217 11.9304 12.8008 12.8089 11.8757 13.427C10.9507 14.0451 9.86319 14.375 8.75067 14.375C7.25933 14.3733 5.82955 13.7802 4.77502 12.7256C3.72048 11.6711 3.12732 10.2413 3.12567 8.74999Z" fill="#8C8C8C"/>
</svg>
