<svg width="20" height="20" viewBox="0 0 20 20" fill="none" xmlns="http://www.w3.org/2000/svg">
<path d="M9.99942 6.25003C9.25774 6.25003 8.53271 6.46996 7.91603 6.88202C7.29934 7.29407 6.8187 7.87974 6.53487 8.56496C6.25104 9.25019 6.17678 10.0042 6.32147 10.7316C6.46617 11.459 6.82332 12.1272 7.34777 12.6517C7.87221 13.1761 8.5404 13.5333 9.26783 13.678C9.99526 13.8227 10.7493 13.7484 11.4345 13.4646C12.1197 13.1807 12.7054 12.7001 13.1174 12.0834C13.5295 11.4667 13.7494 10.7417 13.7494 10C13.7484 9.00578 13.353 8.05256 12.6499 7.34952C11.9469 6.64648 10.9937 6.25106 9.99942 6.25003ZM9.99942 12.5C9.50496 12.5 9.02161 12.3534 8.61049 12.0787C8.19937 11.804 7.87894 11.4135 7.68972 10.9567C7.5005 10.4999 7.45099 9.99725 7.54745 9.5123C7.64392 9.02735 7.88202 8.58189 8.23165 8.23226C8.58128 7.88263 9.02674 7.64453 9.51169 7.54806C9.99664 7.4516 10.4993 7.50111 10.9561 7.69033C11.4129 7.87955 11.8034 8.19998 12.0781 8.6111C12.3528 9.02222 12.4994 9.50557 12.4994 10C12.4994 10.6631 12.236 11.299 11.7672 11.7678C11.2983 12.2366 10.6625 12.5 9.99942 12.5ZM18.5885 8.37581C18.5711 8.2878 18.5349 8.20456 18.4825 8.13177C18.43 8.05897 18.3625 7.99832 18.2846 7.95393L15.9541 6.62581L15.9447 3.99924C15.9444 3.90879 15.9245 3.81947 15.8864 3.73746C15.8482 3.65545 15.7927 3.5827 15.7236 3.52424C14.8783 2.80916 13.9048 2.26117 12.8549 1.9094C12.7722 1.88142 12.6846 1.87106 12.5977 1.879C12.5107 1.88694 12.4264 1.913 12.3502 1.95549L9.99942 3.26956L7.64629 1.95315C7.57 1.91041 7.4856 1.88416 7.39853 1.87608C7.31146 1.86801 7.22367 1.87829 7.14082 1.90628C6.09172 2.26062 5.11933 2.8107 4.2752 3.52737C4.20627 3.58574 4.15081 3.65836 4.11264 3.74023C4.07447 3.8221 4.0545 3.91126 4.0541 4.00159L4.04239 6.63049L1.71192 7.95862C1.63395 8.00301 1.56645 8.06366 1.51401 8.13646C1.46157 8.20925 1.42542 8.29248 1.40801 8.38049C1.19473 9.45228 1.19473 10.5556 1.40801 11.6274C1.42542 11.7154 1.46157 11.7986 1.51401 11.8714C1.56645 11.9442 1.63395 12.0049 1.71192 12.0492L4.04239 13.3774L4.05176 16.0039C4.05204 16.0944 4.07196 16.1837 4.11013 16.2657C4.1483 16.3477 4.20382 16.4205 4.27285 16.4789C5.11822 17.194 6.09173 17.742 7.1416 18.0938C7.22428 18.1218 7.3119 18.1321 7.39883 18.1242C7.48575 18.1162 7.57005 18.0902 7.64629 18.0477L9.99942 16.7305L12.3525 18.0469C12.4457 18.0988 12.5506 18.1257 12.6572 18.125C12.7255 18.125 12.7933 18.1139 12.858 18.0922C13.907 17.7383 14.8794 17.1888 15.7236 16.4727C15.7926 16.4143 15.848 16.3417 15.8862 16.2598C15.9244 16.178 15.9443 16.0888 15.9447 15.9985L15.9564 13.3696L18.2869 12.0414C18.3649 11.997 18.4324 11.9364 18.4848 11.8636C18.5373 11.7908 18.5734 11.7076 18.5908 11.6196C18.8029 10.5486 18.8021 9.44643 18.5885 8.37581ZM17.4166 11.1032L15.1846 12.3727C15.0868 12.4283 15.0058 12.5093 14.9502 12.6071C14.9049 12.6852 14.8572 12.768 14.8088 12.8461C14.7468 12.9446 14.7138 13.0586 14.7135 13.175L14.7018 15.6946C14.1018 16.1657 13.4334 16.5424 12.7197 16.8117L10.4682 15.5571C10.3747 15.5053 10.2695 15.4784 10.1627 15.4789H10.1479C10.0533 15.4789 9.95801 15.4789 9.86348 15.4789C9.75167 15.4761 9.64113 15.5031 9.54317 15.5571L7.29004 16.8149C6.57481 16.5476 5.90459 16.1727 5.30254 15.7032L5.29395 13.1875C5.29356 13.0709 5.26055 12.9567 5.19864 12.8578C5.1502 12.7797 5.10254 12.7016 5.05801 12.6188C5.00279 12.5195 4.92183 12.4369 4.82364 12.3797L2.58926 11.1071C2.47363 10.3757 2.47363 9.63064 2.58926 8.89925L4.81738 7.62737C4.91518 7.57176 4.99615 7.49079 5.05176 7.39299C5.09707 7.31487 5.14473 7.23206 5.19317 7.15393C5.25517 7.05541 5.2882 6.94143 5.28848 6.82503L5.3002 4.30549C5.90014 3.83436 6.56853 3.45762 7.28223 3.18831L9.53067 4.44299C9.62852 4.49724 9.73914 4.52422 9.85098 4.52112C9.94551 4.52112 10.0408 4.52112 10.1354 4.52112C10.2472 4.52391 10.3577 4.49695 10.4557 4.44299L12.7088 3.18518C13.424 3.45243 14.0942 3.82732 14.6963 4.2969L14.7049 6.81253C14.7053 6.92916 14.7383 7.04336 14.8002 7.14221C14.8486 7.22034 14.8963 7.29846 14.9408 7.38128C14.996 7.48058 15.077 7.56317 15.1752 7.62034L17.4096 8.89299C17.5267 9.62495 17.5281 10.3708 17.4135 11.1032H17.4166Z" fill="#141414"/>
</svg>
