<svg width="36" height="36" viewBox="0 0 36 36" fill="none" xmlns="http://www.w3.org/2000/svg">
<path d="M0 8C0 3.58172 3.58172 0 8 0H28C32.4183 0 36 3.58172 36 8V28C36 32.4183 32.4183 36 28 36H8C3.58172 36 0 32.4183 0 28V8Z" fill="#F8F8F8"/>
<path d="M25.5 16.125C25.5 16.2908 25.4342 16.4497 25.3169 16.5669C25.1997 16.6842 25.0408 16.75 24.875 16.75C24.7092 16.75 24.5503 16.6842 24.4331 16.5669C24.3158 16.4497 24.25 16.2908 24.25 16.125V12.6344L19.068 17.8172C18.9507 17.9345 18.7916 18.0003 18.6258 18.0003C18.4599 18.0003 18.3009 17.9345 18.1836 17.8172C18.0663 17.6999 18.0004 17.5409 18.0004 17.375C18.0004 17.2091 18.0663 17.0501 18.1836 16.9328L23.3656 11.75H19.875C19.7092 11.75 19.5503 11.6842 19.4331 11.5669C19.3158 11.4497 19.25 11.2908 19.25 11.125C19.25 10.9592 19.3158 10.8003 19.4331 10.6831C19.5503 10.5658 19.7092 10.5 19.875 10.5H24.875C25.0408 10.5 25.1997 10.5658 25.3169 10.6831C25.4342 10.8003 25.5 10.9592 25.5 11.125V16.125ZM22.375 18C22.2092 18 22.0503 18.0658 21.9331 18.1831C21.8158 18.3003 21.75 18.4592 21.75 18.625V24.25H11.75V14.25H17.375C17.5408 14.25 17.6997 14.1842 17.8169 14.0669C17.9342 13.9497 18 13.7908 18 13.625C18 13.4592 17.9342 13.3003 17.8169 13.1831C17.6997 13.0658 17.5408 13 17.375 13H11.75C11.4185 13 11.1005 13.1317 10.8661 13.3661C10.6317 13.6005 10.5 13.9185 10.5 14.25V24.25C10.5 24.5815 10.6317 24.8995 10.8661 25.1339C11.1005 25.3683 11.4185 25.5 11.75 25.5H21.75C22.0815 25.5 22.3995 25.3683 22.6339 25.1339C22.8683 24.8995 23 24.5815 23 24.25V18.625C23 18.4592 22.9342 18.3003 22.8169 18.1831C22.6997 18.0658 22.5408 18 22.375 18Z" fill="#141414"/>
</svg>
