<svg width="30" height="30" viewBox="0 0 30 30" fill="none" xmlns="http://www.w3.org/2000/svg">
<rect x="0.5" y="0.5" width="29" height="29" rx="5.5" stroke="#D9D9D9"/>
<g opacity="0.5">
<path d="M21.0667 20.8078C21.1248 20.8659 21.1708 20.9348 21.2023 21.0107C21.2337 21.0866 21.2499 21.1679 21.2499 21.25C21.2499 21.3321 21.2337 21.4135 21.2023 21.4893C21.1708 21.5652 21.1248 21.6341 21.0667 21.6922C21.0086 21.7503 20.9397 21.7963 20.8638 21.8278C20.788 21.8592 20.7066 21.8754 20.6245 21.8754C20.5424 21.8754 20.4611 21.8592 20.3852 21.8278C20.3093 21.7963 20.2404 21.7503 20.1823 21.6922L13.9323 15.4422C13.8742 15.3842 13.8281 15.3152 13.7967 15.2393C13.7652 15.1635 13.749 15.0821 13.749 15C13.749 14.9179 13.7652 14.8365 13.7967 14.7607C13.8281 14.6848 13.8742 14.6159 13.9323 14.5578L20.1823 8.30782C20.2996 8.19055 20.4587 8.12466 20.6245 8.12466C20.7904 8.12466 20.9494 8.19055 21.0667 8.30782C21.184 8.4251 21.2499 8.58416 21.2499 8.75001C21.2499 8.91586 21.184 9.07492 21.0667 9.1922L15.2581 15L21.0667 20.8078ZM9.00811 15L14.8167 9.1922C14.934 9.07492 14.9999 8.91586 14.9999 8.75001C14.9999 8.58416 14.934 8.4251 14.8167 8.30782C14.6994 8.19055 14.5404 8.12466 14.3745 8.12466C14.2087 8.12466 14.0496 8.19055 13.9323 8.30782L7.68233 14.5578C7.62422 14.6159 7.57812 14.6848 7.54667 14.7607C7.51521 14.8365 7.49902 14.9179 7.49902 15C7.49902 15.0821 7.51521 15.1635 7.54667 15.2393C7.57812 15.3152 7.62422 15.3842 7.68233 15.4422L13.9323 21.6922C13.9904 21.7503 14.0593 21.7963 14.1352 21.8278C14.2111 21.8592 14.2924 21.8754 14.3745 21.8754C14.4566 21.8754 14.538 21.8592 14.6138 21.8278C14.6897 21.7963 14.7586 21.7503 14.8167 21.6922C14.8748 21.6341 14.9208 21.5652 14.9523 21.4893C14.9837 21.4135 14.9999 21.3321 14.9999 21.25C14.9999 21.1679 14.9837 21.0866 14.9523 21.0107C14.9208 20.9348 14.8748 20.8659 14.8167 20.8078L9.00811 15Z" fill="#141414"/>
</g>
</svg>
