<svg width="48" height="48" viewBox="0 0 48 48" fill="none" xmlns="http://www.w3.org/2000/svg">
<path d="M0 12C0 5.37258 5.37258 0 12 0H36C42.6274 0 48 5.37258 48 12V36C48 42.6274 42.6274 48 36 48H12C5.37258 48 0 42.6274 0 36V12Z" fill="#F8F8F8"/>
<path d="M24 14.25C22.0716 14.25 20.1866 14.8218 18.5832 15.8932C16.9798 16.9645 15.7301 18.4873 14.9922 20.2688C14.2542 22.0504 14.0611 24.0108 14.4373 25.9021C14.8136 27.7934 15.7422 29.5307 17.1057 30.8943C18.4693 32.2579 20.2066 33.1865 22.0979 33.5627C23.9892 33.9389 25.9496 33.7458 27.7312 33.0078C29.5127 32.2699 31.0355 31.0202 32.1068 29.4168C33.1782 27.8134 33.75 25.9284 33.75 24C33.7473 21.415 32.7192 18.9366 30.8913 17.1087C29.0634 15.2808 26.585 14.2527 24 14.25ZM23.625 18.75C23.8475 18.75 24.065 18.816 24.25 18.9396C24.435 19.0632 24.5792 19.2389 24.6644 19.4445C24.7495 19.65 24.7718 19.8762 24.7284 20.0945C24.685 20.3127 24.5778 20.5132 24.4205 20.6705C24.2632 20.8278 24.0627 20.935 23.8445 20.9784C23.6263 21.0218 23.4001 20.9995 23.1945 20.9144C22.9889 20.8292 22.8132 20.685 22.6896 20.5C22.566 20.315 22.5 20.0975 22.5 19.875C22.5 19.5766 22.6185 19.2905 22.8295 19.0795C23.0405 18.8685 23.3266 18.75 23.625 18.75ZM24.75 29.25C24.3522 29.25 23.9706 29.092 23.6893 28.8107C23.408 28.5294 23.25 28.1478 23.25 27.75V24C23.0511 24 22.8603 23.921 22.7197 23.7803C22.579 23.6397 22.5 23.4489 22.5 23.25C22.5 23.0511 22.579 22.8603 22.7197 22.7197C22.8603 22.579 23.0511 22.5 23.25 22.5C23.6478 22.5 24.0294 22.658 24.3107 22.9393C24.592 23.2206 24.75 23.6022 24.75 24V27.75C24.9489 27.75 25.1397 27.829 25.2803 27.9697C25.421 28.1103 25.5 28.3011 25.5 28.5C25.5 28.6989 25.421 28.8897 25.2803 29.0303C25.1397 29.171 24.9489 29.25 24.75 29.25Z" fill="#187D4F"/>
</svg>
