<svg width="18" height="18" viewBox="0 0 18 18" fill="none" xmlns="http://www.w3.org/2000/svg">
<g opacity="0.5">
<path d="M15.0223 11.648C14.9701 11.7003 14.908 11.7418 14.8397 11.7701C14.7715 11.7984 14.6983 11.8129 14.6243 11.8129C14.5504 11.8129 14.4772 11.7984 14.4089 11.7701C14.3406 11.7418 14.2786 11.7003 14.2264 11.648L8.99934 6.42023L3.7723 11.648C3.66676 11.7535 3.5236 11.8128 3.37434 11.8128C3.22507 11.8128 3.08192 11.7535 2.97637 11.648C2.87082 11.5424 2.81152 11.3993 2.81152 11.25C2.81152 11.1007 2.87082 10.9576 2.97637 10.852L8.60137 5.22703C8.65361 5.17473 8.71565 5.13324 8.78393 5.10494C8.85222 5.07663 8.92542 5.06206 8.99934 5.06206C9.07326 5.06206 9.14645 5.07663 9.21474 5.10494C9.28303 5.13324 9.34506 5.17473 9.39731 5.22703L15.0223 10.852C15.0746 10.9043 15.1161 10.9663 15.1444 11.0346C15.1727 11.1029 15.1873 11.1761 15.1873 11.25C15.1873 11.3239 15.1727 11.3971 15.1444 11.4654C15.1161 11.5337 15.0746 11.5957 15.0223 11.648Z" fill="#141414"/>
</g>
</svg>
