<svg width="36" height="36" viewBox="0 0 36 36" fill="none" xmlns="http://www.w3.org/2000/svg">
<path d="M25.5 18C25.5 18.1658 25.4342 18.3247 25.3169 18.4419C25.1997 18.5592 25.0408 18.625 24.875 18.625H18.625V24.875C18.625 25.0408 18.5592 25.1997 18.4419 25.3169C18.3247 25.4342 18.1658 25.5 18 25.5C17.8342 25.5 17.6753 25.4342 17.5581 25.3169C17.4408 25.1997 17.375 25.0408 17.375 24.875V18.625H11.125C10.9592 18.625 10.8003 18.5592 10.6831 18.4419C10.5658 18.3247 10.5 18.1658 10.5 18C10.5 17.8342 10.5658 17.6753 10.6831 17.5581C10.8003 17.4408 10.9592 17.375 11.125 17.375H17.375V11.125C17.375 10.9592 17.4408 10.8003 17.5581 10.6831C17.6753 10.5658 17.8342 10.5 18 10.5C18.1658 10.5 18.3247 10.5658 18.4419 10.6831C18.5592 10.8003 18.625 10.9592 18.625 11.125V17.375H24.875C25.0408 17.375 25.1997 17.4408 25.3169 17.5581C25.4342 17.6753 25.5 17.8342 25.5 18Z" fill="#141414"/>
</svg>
